<svg width="188" height="21" viewBox="0 0 188 21" fill="none" xmlns="http://www.w3.org/2000/svg">
<path d="M96 18.35V1.35C96 0.76 96.34 0.24 96.84 0L106.69 9.85L96.84 19.7C96.34 19.45 96 18.94 96 18.35ZM109.81 12.97L99.05 19.19L107.54 10.7L109.81 12.97ZM113.16 8.66C113.5 8.93 113.75 9.35 113.75 9.85C113.75 10.35 113.53 10.75 113.18 11.03L110.89 12.35L108.39 9.85L110.89 7.35L113.16 8.66ZM99.05 0.51L109.81 6.73L107.54 9L99.05 0.51Z" fill="#999999"/>
<path d="M126.834 10.5117H129.828V14.666C129.379 14.8184 128.916 14.9316 128.439 15.0059C127.967 15.0801 127.438 15.1172 126.852 15.1172C125.961 15.1172 125.209 14.9395 124.596 14.584C123.986 14.2285 123.523 13.7227 123.207 13.0664C122.891 12.4062 122.732 11.623 122.732 10.7168C122.732 9.83008 122.906 9.05664 123.254 8.39648C123.605 7.73633 124.111 7.22461 124.771 6.86133C125.436 6.49414 126.232 6.31055 127.162 6.31055C127.639 6.31055 128.09 6.35547 128.516 6.44531C128.945 6.53125 129.344 6.6543 129.711 6.81445L129.33 7.68164C129.014 7.54492 128.664 7.42773 128.281 7.33008C127.902 7.23242 127.51 7.18359 127.104 7.18359C126.404 7.18359 125.805 7.32812 125.305 7.61719C124.809 7.90625 124.428 8.31445 124.162 8.8418C123.9 9.36914 123.77 9.99414 123.77 10.7168C123.77 11.4316 123.885 12.0547 124.115 12.5859C124.346 13.1133 124.705 13.5234 125.193 13.8164C125.682 14.1094 126.311 14.2559 127.08 14.2559C127.467 14.2559 127.799 14.2344 128.076 14.1914C128.354 14.1445 128.605 14.0898 128.832 14.0273V11.4023H126.834V10.5117ZM137.293 11.7773C137.293 12.3047 137.225 12.7754 137.088 13.1895C136.951 13.6035 136.754 13.9531 136.496 14.2383C136.238 14.5234 135.926 14.7422 135.559 14.8945C135.195 15.043 134.783 15.1172 134.322 15.1172C133.893 15.1172 133.498 15.043 133.139 14.8945C132.783 14.7422 132.475 14.5234 132.213 14.2383C131.955 13.9531 131.754 13.6035 131.609 13.1895C131.469 12.7754 131.398 12.3047 131.398 11.7773C131.398 11.0742 131.518 10.4766 131.756 9.98438C131.994 9.48828 132.334 9.11133 132.775 8.85352C133.221 8.5918 133.75 8.46094 134.363 8.46094C134.949 8.46094 135.461 8.5918 135.898 8.85352C136.34 9.11523 136.682 9.49414 136.924 9.99023C137.17 10.4824 137.293 11.0781 137.293 11.7773ZM132.406 11.7773C132.406 12.293 132.475 12.7402 132.611 13.1191C132.748 13.498 132.959 13.791 133.244 13.998C133.529 14.2051 133.896 14.3086 134.346 14.3086C134.791 14.3086 135.156 14.2051 135.441 13.998C135.73 13.791 135.943 13.498 136.08 13.1191C136.217 12.7402 136.285 12.293 136.285 11.7773C136.285 11.2656 136.217 10.8242 136.08 10.4531C135.943 10.0781 135.732 9.78906 135.447 9.58594C135.162 9.38281 134.793 9.28125 134.34 9.28125C133.672 9.28125 133.182 9.50195 132.869 9.94336C132.561 10.3848 132.406 10.9961 132.406 11.7773ZM144.512 11.7773C144.512 12.3047 144.443 12.7754 144.307 13.1895C144.17 13.6035 143.973 13.9531 143.715 14.2383C143.457 14.5234 143.145 14.7422 142.777 14.8945C142.414 15.043 142.002 15.1172 141.541 15.1172C141.111 15.1172 140.717 15.043 140.357 14.8945C140.002 14.7422 139.693 14.5234 139.432 14.2383C139.174 13.9531 138.973 13.6035 138.828 13.1895C138.688 12.7754 138.617 12.3047 138.617 11.7773C138.617 11.0742 138.736 10.4766 138.975 9.98438C139.213 9.48828 139.553 9.11133 139.994 8.85352C140.439 8.5918 140.969 8.46094 141.582 8.46094C142.168 8.46094 142.68 8.5918 143.117 8.85352C143.559 9.11523 143.9 9.49414 144.143 9.99023C144.389 10.4824 144.512 11.0781 144.512 11.7773ZM139.625 11.7773C139.625 12.293 139.693 12.7402 139.83 13.1191C139.967 13.498 140.178 13.791 140.463 13.998C140.748 14.2051 141.115 14.3086 141.564 14.3086C142.01 14.3086 142.375 14.2051 142.66 13.998C142.949 13.791 143.162 13.498 143.299 13.1191C143.436 12.7402 143.504 12.293 143.504 11.7773C143.504 11.2656 143.436 10.8242 143.299 10.4531C143.162 10.0781 142.951 9.78906 142.666 9.58594C142.381 9.38281 142.012 9.28125 141.559 9.28125C140.891 9.28125 140.4 9.50195 140.088 9.94336C139.779 10.3848 139.625 10.9961 139.625 11.7773ZM147.986 17.8828C147.143 17.8828 146.492 17.7246 146.035 17.4082C145.578 17.0957 145.35 16.6562 145.35 16.0898C145.35 15.6875 145.477 15.3438 145.73 15.0586C145.988 14.7734 146.344 14.584 146.797 14.4902C146.629 14.4121 146.484 14.2949 146.363 14.1387C146.246 13.9824 146.188 13.8027 146.188 13.5996C146.188 13.3652 146.252 13.1602 146.381 12.9844C146.514 12.8047 146.715 12.6328 146.984 12.4688C146.648 12.332 146.375 12.1016 146.164 11.7773C145.957 11.4492 145.854 11.0684 145.854 10.6348C145.854 10.1738 145.949 9.78125 146.141 9.45703C146.332 9.12891 146.609 8.87891 146.973 8.70703C147.336 8.53516 147.775 8.44922 148.291 8.44922C148.404 8.44922 148.518 8.45508 148.631 8.4668C148.748 8.47461 148.859 8.48828 148.965 8.50781C149.07 8.52344 149.162 8.54297 149.24 8.56641H151.443V9.19336L150.26 9.33984C150.377 9.49219 150.475 9.67578 150.553 9.89062C150.631 10.1055 150.67 10.3438 150.67 10.6055C150.67 11.2461 150.453 11.7559 150.02 12.1348C149.586 12.5098 148.99 12.6973 148.232 12.6973C148.053 12.6973 147.869 12.6816 147.682 12.6504C147.49 12.7559 147.344 12.873 147.242 13.002C147.145 13.1309 147.096 13.2793 147.096 13.4473C147.096 13.5723 147.133 13.6719 147.207 13.7461C147.285 13.8203 147.396 13.875 147.541 13.9102C147.686 13.9414 147.859 13.957 148.062 13.957H149.193C149.893 13.957 150.428 14.1035 150.799 14.3965C151.174 14.6895 151.361 15.1172 151.361 15.6797C151.361 16.3906 151.072 16.9355 150.494 17.3145C149.916 17.6934 149.08 17.8828 147.986 17.8828ZM148.016 17.1211C148.547 17.1211 148.986 17.0664 149.334 16.957C149.686 16.8516 149.947 16.6973 150.119 16.4941C150.295 16.2949 150.383 16.0566 150.383 15.7793C150.383 15.5215 150.324 15.3262 150.207 15.1934C150.09 15.0645 149.918 14.9785 149.691 14.9355C149.465 14.8887 149.188 14.8652 148.859 14.8652H147.746C147.457 14.8652 147.205 14.9102 146.99 15C146.775 15.0898 146.609 15.2227 146.492 15.3984C146.379 15.5742 146.322 15.793 146.322 16.0547C146.322 16.4023 146.469 16.666 146.762 16.8457C147.055 17.0293 147.473 17.1211 148.016 17.1211ZM148.268 11.9883C148.732 11.9883 149.082 11.8711 149.316 11.6367C149.551 11.4023 149.668 11.0605 149.668 10.6113C149.668 10.1309 149.549 9.77148 149.311 9.5332C149.072 9.29102 148.721 9.16992 148.256 9.16992C147.811 9.16992 147.467 9.29492 147.225 9.54492C146.986 9.79102 146.867 10.1523 146.867 10.6289C146.867 11.0664 146.988 11.4023 147.23 11.6367C147.473 11.8711 147.818 11.9883 148.268 11.9883ZM153.688 15H152.709V5.88281H153.688V15ZM158.217 8.46094C158.764 8.46094 159.232 8.58203 159.623 8.82422C160.014 9.06641 160.312 9.40625 160.52 9.84375C160.727 10.2773 160.83 10.7852 160.83 11.3672V11.9707H156.395C156.406 12.7246 156.594 13.2988 156.957 13.6934C157.32 14.0879 157.832 14.2852 158.492 14.2852C158.898 14.2852 159.258 14.248 159.57 14.1738C159.883 14.0996 160.207 13.9902 160.543 13.8457V14.7012C160.219 14.8457 159.896 14.9512 159.576 15.0176C159.26 15.084 158.885 15.1172 158.451 15.1172C157.834 15.1172 157.295 14.9922 156.834 14.7422C156.377 14.4883 156.021 14.1172 155.768 13.6289C155.514 13.1406 155.387 12.543 155.387 11.8359C155.387 11.1445 155.502 10.5469 155.732 10.043C155.967 9.53516 156.295 9.14453 156.717 8.87109C157.143 8.59766 157.643 8.46094 158.217 8.46094ZM158.205 9.25781C157.686 9.25781 157.271 9.42773 156.963 9.76758C156.654 10.1074 156.471 10.582 156.412 11.1914H159.811C159.807 10.8086 159.746 10.4727 159.629 10.1836C159.516 9.89062 159.342 9.66406 159.107 9.50391C158.873 9.33984 158.572 9.25781 158.205 9.25781ZM167.984 6.43359C169.09 6.43359 169.896 6.65039 170.404 7.08398C170.916 7.51367 171.172 8.13086 171.172 8.93555C171.172 9.29883 171.111 9.64453 170.99 9.97266C170.873 10.2969 170.682 10.584 170.416 10.834C170.15 11.0801 169.801 11.2754 169.367 11.4199C168.938 11.5605 168.41 11.6309 167.785 11.6309H166.742V15H165.746V6.43359H167.984ZM167.891 7.2832H166.742V10.7754H167.674C168.221 10.7754 168.676 10.7168 169.039 10.5996C169.406 10.4824 169.682 10.293 169.865 10.0312C170.049 9.76562 170.141 9.41406 170.141 8.97656C170.141 8.40625 169.959 7.98242 169.596 7.70508C169.232 7.42383 168.664 7.2832 167.891 7.2832ZM173.797 15H172.818V5.88281H173.797V15ZM178.256 8.47266C179.021 8.47266 179.59 8.64453 179.961 8.98828C180.332 9.33203 180.518 9.88086 180.518 10.6348V15H179.809L179.621 14.0508H179.574C179.395 14.2852 179.207 14.4824 179.012 14.6426C178.816 14.7988 178.59 14.918 178.332 15C178.078 15.0781 177.766 15.1172 177.395 15.1172C177.004 15.1172 176.656 15.0488 176.352 14.9121C176.051 14.7754 175.812 14.5684 175.637 14.291C175.465 14.0137 175.379 13.6621 175.379 13.2363C175.379 12.5957 175.633 12.1035 176.141 11.7598C176.648 11.416 177.422 11.2285 178.461 11.1973L179.568 11.1504V10.7578C179.568 10.2031 179.449 9.81445 179.211 9.5918C178.973 9.36914 178.637 9.25781 178.203 9.25781C177.867 9.25781 177.547 9.30664 177.242 9.4043C176.938 9.50195 176.648 9.61719 176.375 9.75L176.076 9.01172C176.365 8.86328 176.697 8.73633 177.072 8.63086C177.447 8.52539 177.842 8.47266 178.256 8.47266ZM179.557 11.8359L178.578 11.877C177.777 11.9082 177.213 12.0391 176.885 12.2695C176.557 12.5 176.393 12.8262 176.393 13.248C176.393 13.6152 176.504 13.8867 176.727 14.0625C176.949 14.2383 177.244 14.3262 177.611 14.3262C178.182 14.3262 178.648 14.168 179.012 13.8516C179.375 13.5352 179.557 13.0605 179.557 12.4277V11.8359ZM181.508 8.57812H182.551L183.969 12.3047C184.051 12.5234 184.127 12.7344 184.197 12.9375C184.268 13.1367 184.33 13.3281 184.385 13.5117C184.439 13.6953 184.482 13.873 184.514 14.0449H184.555C184.609 13.8496 184.688 13.5938 184.789 13.2773C184.891 12.957 185 12.6309 185.117 12.2988L186.459 8.57812H187.508L184.713 15.9434C184.564 16.3379 184.391 16.6816 184.191 16.9746C183.996 17.2676 183.758 17.4922 183.477 17.6484C183.195 17.8086 182.855 17.8887 182.457 17.8887C182.273 17.8887 182.111 17.877 181.971 17.8535C181.83 17.834 181.709 17.8105 181.607 17.7832V17.0039C181.693 17.0234 181.797 17.041 181.918 17.0566C182.043 17.0723 182.172 17.0801 182.305 17.0801C182.547 17.0801 182.756 17.0332 182.932 16.9395C183.111 16.8496 183.266 16.7168 183.395 16.541C183.523 16.3652 183.635 16.1562 183.729 15.9141L184.08 15.0117L181.508 8.57812Z" fill="#999999"/>
<path d="M30.5449 15L29.4902 12.2812H26.0566L25.0078 15H24L27.3516 6.39844H28.248L31.5762 15H30.5449ZM29.1914 11.3965L28.1895 8.69531C28.166 8.625 28.127 8.50977 28.0723 8.34961C28.0215 8.18945 27.9688 8.02344 27.9141 7.85156C27.8594 7.67969 27.8145 7.54102 27.7793 7.43555C27.7402 7.5957 27.6973 7.75586 27.6504 7.91602C27.6074 8.07227 27.5645 8.21875 27.5215 8.35547C27.4785 8.48828 27.4414 8.60156 27.4102 8.69531L26.3906 11.3965H29.1914ZM35.6367 8.46094C36.4375 8.46094 37.0762 8.73633 37.5527 9.28711C38.0293 9.83789 38.2676 10.666 38.2676 11.7715C38.2676 12.502 38.1582 13.1152 37.9395 13.6113C37.7207 14.1074 37.4121 14.4824 37.0137 14.7363C36.6191 14.9902 36.1523 15.1172 35.6133 15.1172C35.2734 15.1172 34.9746 15.0723 34.7168 14.9824C34.459 14.8926 34.2383 14.7715 34.0547 14.6191C33.8711 14.4668 33.7188 14.3008 33.5977 14.1211H33.5273C33.5391 14.2734 33.5527 14.457 33.5684 14.6719C33.5879 14.8867 33.5977 15.0742 33.5977 15.2344V17.8711H32.6191V8.57812H33.4219L33.5508 9.52734H33.5977C33.7227 9.33203 33.875 9.1543 34.0547 8.99414C34.2344 8.83008 34.4531 8.70117 34.7109 8.60742C34.9727 8.50977 35.2812 8.46094 35.6367 8.46094ZM35.4668 9.28125C35.0215 9.28125 34.6621 9.36719 34.3887 9.53906C34.1191 9.71094 33.9219 9.96875 33.7969 10.3125C33.6719 10.6523 33.6055 11.0801 33.5977 11.5957V11.7832C33.5977 12.3262 33.6562 12.7852 33.7734 13.1602C33.8945 13.5352 34.0918 13.8203 34.3652 14.0156C34.6426 14.2109 35.0137 14.3086 35.4785 14.3086C35.877 14.3086 36.209 14.2012 36.4746 13.9863C36.7402 13.7715 36.9375 13.4727 37.0664 13.0898C37.1992 12.7031 37.2656 12.2598 37.2656 11.7598C37.2656 11.002 37.1172 10.4004 36.8203 9.95508C36.5273 9.50586 36.0762 9.28125 35.4668 9.28125ZM42.9844 8.46094C43.7852 8.46094 44.4238 8.73633 44.9004 9.28711C45.377 9.83789 45.6152 10.666 45.6152 11.7715C45.6152 12.502 45.5059 13.1152 45.2871 13.6113C45.0684 14.1074 44.7598 14.4824 44.3613 14.7363C43.9668 14.9902 43.5 15.1172 42.9609 15.1172C42.6211 15.1172 42.3223 15.0723 42.0645 14.9824C41.8066 14.8926 41.5859 14.7715 41.4023 14.6191C41.2188 14.4668 41.0664 14.3008 40.9453 14.1211H40.875C40.8867 14.2734 40.9004 14.457 40.916 14.6719C40.9355 14.8867 40.9453 15.0742 40.9453 15.2344V17.8711H39.9668V8.57812H40.7695L40.8984 9.52734H40.9453C41.0703 9.33203 41.2227 9.1543 41.4023 8.99414C41.582 8.83008 41.8008 8.70117 42.0586 8.60742C42.3203 8.50977 42.6289 8.46094 42.9844 8.46094ZM42.8145 9.28125C42.3691 9.28125 42.0098 9.36719 41.7363 9.53906C41.4668 9.71094 41.2695 9.96875 41.1445 10.3125C41.0195 10.6523 40.9531 11.0801 40.9453 11.5957V11.7832C40.9453 12.3262 41.0039 12.7852 41.1211 13.1602C41.2422 13.5352 41.4395 13.8203 41.7129 14.0156C41.9902 14.2109 42.3613 14.3086 42.8262 14.3086C43.2246 14.3086 43.5566 14.2012 43.8223 13.9863C44.0879 13.7715 44.2852 13.4727 44.4141 13.0898C44.5469 12.7031 44.6133 12.2598 44.6133 11.7598C44.6133 11.002 44.4648 10.4004 44.168 9.95508C43.875 9.50586 43.4238 9.28125 42.8145 9.28125ZM55.4121 12.7207C55.4121 13.2285 55.2852 13.6621 55.0312 14.0215C54.7812 14.377 54.4297 14.6484 53.9766 14.8359C53.5234 15.0234 52.9902 15.1172 52.377 15.1172C52.0527 15.1172 51.7461 15.1016 51.457 15.0703C51.168 15.0391 50.9023 14.9941 50.6602 14.9355C50.418 14.877 50.2051 14.8047 50.0215 14.7188V13.7637C50.3145 13.8848 50.6719 13.998 51.0938 14.1035C51.5156 14.2051 51.957 14.2559 52.418 14.2559C52.8477 14.2559 53.2109 14.1992 53.5078 14.0859C53.8047 13.9688 54.0293 13.8027 54.1816 13.5879C54.3379 13.3691 54.416 13.1074 54.416 12.8027C54.416 12.5098 54.3516 12.2656 54.2227 12.0703C54.0938 11.8711 53.8789 11.6914 53.5781 11.5312C53.2812 11.3672 52.875 11.1934 52.3594 11.0098C51.9961 10.8809 51.6758 10.7402 51.3984 10.5879C51.1211 10.4316 50.8887 10.2559 50.7012 10.0605C50.5137 9.86523 50.3711 9.63867 50.2734 9.38086C50.1797 9.12305 50.1328 8.82812 50.1328 8.49609C50.1328 8.03906 50.248 7.64844 50.4785 7.32422C50.7129 6.99609 51.0352 6.74609 51.4453 6.57422C51.8594 6.39844 52.334 6.31055 52.8691 6.31055C53.3262 6.31055 53.748 6.35352 54.1348 6.43945C54.5254 6.52539 54.8828 6.64062 55.207 6.78516L54.8965 7.64062C54.5879 7.51172 54.2598 7.4043 53.9121 7.31836C53.5684 7.23242 53.2129 7.18945 52.8457 7.18945C52.4785 7.18945 52.168 7.24414 51.9141 7.35352C51.6641 7.45898 51.4727 7.60938 51.3398 7.80469C51.207 8 51.1406 8.23242 51.1406 8.50195C51.1406 8.80273 51.2031 9.05273 51.3281 9.25195C51.457 9.45117 51.6602 9.62891 51.9375 9.78516C52.2188 9.9375 52.5898 10.0977 53.0508 10.2656C53.5547 10.4492 53.9824 10.6445 54.334 10.8516C54.6855 11.0547 54.9531 11.3047 55.1367 11.6016C55.3203 11.8945 55.4121 12.2676 55.4121 12.7207ZM59.0918 14.3203C59.252 14.3203 59.416 14.3066 59.584 14.2793C59.752 14.252 59.8887 14.2188 59.9941 14.1797V14.9355C59.8809 14.9863 59.7227 15.0293 59.5195 15.0645C59.3203 15.0996 59.125 15.1172 58.9336 15.1172C58.5938 15.1172 58.2852 15.0586 58.0078 14.9414C57.7305 14.8203 57.5078 14.6172 57.3398 14.332C57.1758 14.0469 57.0938 13.6523 57.0938 13.1484V9.33984H56.1797V8.86523L57.0996 8.48438L57.4863 7.08984H58.0723V8.57812H59.9531V9.33984H58.0723V13.1191C58.0723 13.5215 58.1641 13.8223 58.3477 14.0215C58.5352 14.2207 58.7832 14.3203 59.0918 14.3203ZM66.832 11.7773C66.832 12.3047 66.7637 12.7754 66.627 13.1895C66.4902 13.6035 66.293 13.9531 66.0352 14.2383C65.7773 14.5234 65.4648 14.7422 65.0977 14.8945C64.7344 15.043 64.3223 15.1172 63.8613 15.1172C63.4316 15.1172 63.0371 15.043 62.6777 14.8945C62.3223 14.7422 62.0137 14.5234 61.752 14.2383C61.4941 13.9531 61.293 13.6035 61.1484 13.1895C61.0078 12.7754 60.9375 12.3047 60.9375 11.7773C60.9375 11.0742 61.0566 10.4766 61.2949 9.98438C61.5332 9.48828 61.873 9.11133 62.3145 8.85352C62.7598 8.5918 63.2891 8.46094 63.9023 8.46094C64.4883 8.46094 65 8.5918 65.4375 8.85352C65.8789 9.11523 66.2207 9.49414 66.4629 9.99023C66.709 10.4824 66.832 11.0781 66.832 11.7773ZM61.9453 11.7773C61.9453 12.293 62.0137 12.7402 62.1504 13.1191C62.2871 13.498 62.498 13.791 62.7832 13.998C63.0684 14.2051 63.4355 14.3086 63.8848 14.3086C64.3301 14.3086 64.6953 14.2051 64.9805 13.998C65.2695 13.791 65.4824 13.498 65.6191 13.1191C65.7559 12.7402 65.8242 12.293 65.8242 11.7773C65.8242 11.2656 65.7559 10.8242 65.6191 10.4531C65.4824 10.0781 65.2715 9.78906 64.9863 9.58594C64.7012 9.38281 64.332 9.28125 63.8789 9.28125C63.2109 9.28125 62.7207 9.50195 62.4082 9.94336C62.0996 10.3848 61.9453 10.9961 61.9453 11.7773ZM71.4316 8.46094C71.5605 8.46094 71.6953 8.46875 71.8359 8.48438C71.9766 8.49609 72.1016 8.51367 72.2109 8.53711L72.0879 9.43945C71.9824 9.41211 71.8652 9.39062 71.7363 9.375C71.6074 9.35938 71.4863 9.35156 71.373 9.35156C71.1152 9.35156 70.8711 9.4043 70.6406 9.50977C70.4141 9.61133 70.2148 9.75977 70.043 9.95508C69.8711 10.1465 69.7363 10.3789 69.6387 10.6523C69.541 10.9219 69.4922 11.2227 69.4922 11.5547V15H68.5137V8.57812H69.3223L69.4277 9.76172H69.4688C69.6016 9.52344 69.7617 9.30664 69.9492 9.11133C70.1367 8.91211 70.3535 8.75391 70.5996 8.63672C70.8496 8.51953 71.127 8.46094 71.4316 8.46094ZM75.8965 8.46094C76.4434 8.46094 76.9121 8.58203 77.3027 8.82422C77.6934 9.06641 77.9922 9.40625 78.1992 9.84375C78.4062 10.2773 78.5098 10.7852 78.5098 11.3672V11.9707H74.0742C74.0859 12.7246 74.2734 13.2988 74.6367 13.6934C75 14.0879 75.5117 14.2852 76.1719 14.2852C76.5781 14.2852 76.9375 14.248 77.25 14.1738C77.5625 14.0996 77.8867 13.9902 78.2227 13.8457V14.7012C77.8984 14.8457 77.5762 14.9512 77.2559 15.0176C76.9395 15.084 76.5645 15.1172 76.1309 15.1172C75.5137 15.1172 74.9746 14.9922 74.5137 14.7422C74.0566 14.4883 73.7012 14.1172 73.4473 13.6289C73.1934 13.1406 73.0664 12.543 73.0664 11.8359C73.0664 11.1445 73.1816 10.5469 73.4121 10.043C73.6465 9.53516 73.9746 9.14453 74.3965 8.87109C74.8223 8.59766 75.3223 8.46094 75.8965 8.46094ZM75.8848 9.25781C75.3652 9.25781 74.9512 9.42773 74.6426 9.76758C74.334 10.1074 74.1504 10.582 74.0918 11.1914H77.4902C77.4863 10.8086 77.4258 10.4727 77.3086 10.1836C77.1953 9.89062 77.0215 9.66406 76.7871 9.50391C76.5527 9.33984 76.252 9.25781 75.8848 9.25781Z" fill="#999999"/>
<path d="M14.8456 17.5C14.0156 18.74 13.1356 19.95 11.7956 19.97C10.4556 20 10.0256 19.18 8.50559 19.18C6.97559 19.18 6.50559 19.95 5.23559 20C3.92559 20.05 2.93559 18.68 2.09559 17.47C0.38559 15 -0.92441 10.45 0.83559 7.39C1.70559 5.87 3.26559 4.91 4.95559 4.88C6.23559 4.86 7.45559 5.75 8.24559 5.75C9.02559 5.75 10.5056 4.68 12.0556 4.84C12.7056 4.87 14.5256 5.1 15.6956 6.82C15.6056 6.88 13.5256 8.1 13.5456 10.63C13.5756 13.65 16.1956 14.66 16.2256 14.67C16.1956 14.74 15.8056 16.11 14.8456 17.5ZM9.13559 1.5C9.86559 0.67 11.0756 0.04 12.0756 0C12.2056 1.17 11.7356 2.35 11.0356 3.19C10.3456 4.04 9.20559 4.7 8.08559 4.61C7.93559 3.46 8.49559 2.26 9.13559 1.5Z" fill="#999999"/>
</svg>
