<?xml version="1.0" encoding="UTF-8" standalone="no" ?>
<!DOCTYPE svg PUBLIC "-//W3C//DTD SVG 1.1//EN" "http://www.w3.org/Graphics/SVG/1.1/DTD/svg11.dtd">
<svg xmlns="http://www.w3.org/2000/svg" xmlns:xlink="http://www.w3.org/1999/xlink" version="1.1" width="448" height="512" viewBox="0 0 448 512" xml:space="preserve">
<desc>Created with Fabric.js 3.6.3</desc>
<defs>
</defs>
<rect x="0" y="0" width="100%" height="100%" fill="rgba(255, 255, 255, 0)"></rect>
<g transform="matrix(1 0 0 1 224.5 256.5)"  >
<path style="stroke: none; stroke-width: 1; stroke-dasharray: none; stroke-linecap: butt; stroke-dashoffset: 0; stroke-linejoin: miter; stroke-miterlimit: 4; fill: rgb(255,255,255); fill-rule: nonzero; opacity: 1;"  transform=" translate(-224, -256)" d="M 224 256 c 70.7 0 128 -57.3 128 -128 S 294.7 0 224 0 S 96 57.3 96 128 s 57.3 128 128 128 z m 89.6 32 h -16.7 c -22.2 10.2 -46.9 16 -72.9 16 s -50.6 -5.8 -72.9 -16 h -16.7 C 60.2 288 0 348.2 0 422.4 V 464 c 0 26.5 21.5 48 48 48 h 352 c 26.5 0 48 -21.5 48 -48 v -41.6 c 0 -74.2 -60.2 -134.4 -134.4 -134.4 z" stroke-linecap="round" />
</g>
</svg>