<svg width="150" height="20" viewBox="0 0 150 20" fill="none" xmlns="http://www.w3.org/2000/svg">
<path d="M20.92 3C20.15 3.35 19.32 3.58 18.46 3.69C19.34 3.16 20.02 2.32 20.34 1.31C19.51 1.81 18.59 2.16 17.62 2.36C16.83 1.5 15.72 1 14.46 1C12.11 1 10.19 2.92 10.19 5.29C10.19 5.63 10.23 5.96 10.3 6.27C6.74 6.09 3.57 4.38 1.46 1.79C1.09 2.42 0.88 3.16 0.88 3.94C0.88 5.43 1.63 6.75 2.79 7.5C2.08 7.5 1.42 7.3 0.84 7C0.84 7 0.84 7 0.84 7.03C0.84 9.11 2.32 10.85 4.28 11.24C3.92 11.34 3.54 11.39 3.15 11.39C2.88 11.39 2.61 11.36 2.35 11.31C2.89 13 4.46 14.26 6.35 14.29C4.89 15.45 3.04 16.13 1.02 16.13C0.68 16.13 0.34 16.11 0 16.07C1.9 17.29 4.16 18 6.58 18C14.46 18 18.79 11.46 18.79 5.79C18.79 5.6 18.79 5.42 18.78 5.23C19.62 4.63 20.34 3.87 20.92 3Z" fill="#999999"/>
<path d="M138 13L143.19 10L138 7V13ZM149.56 5.17C149.69 5.64 149.78 6.27 149.84 7.07C149.91 7.87 149.94 8.56 149.94 9.16L150 10C150 12.19 149.84 13.8 149.56 14.83C149.31 15.73 148.73 16.31 147.83 16.56C147.36 16.69 146.5 16.78 145.18 16.84C143.88 16.91 142.69 16.94 141.59 16.94L140 17C135.81 17 133.2 16.84 132.17 16.56C131.27 16.31 130.69 15.73 130.44 14.83C130.31 14.36 130.22 13.73 130.16 12.93C130.09 12.13 130.06 11.44 130.06 10.84L130 10C130 7.81 130.16 6.2 130.44 5.17C130.69 4.27 131.27 3.69 132.17 3.44C132.64 3.31 133.5 3.22 134.82 3.16C136.12 3.09 137.31 3.06 138.41 3.06L140 3C144.19 3 146.8 3.16 147.83 3.44C148.73 3.69 149.31 4.27 149.56 5.17Z" fill="#999999"/>
<path d="M54 0C48.5 0 44 4.49 44 10.02C44 15.02 47.66 19.17 52.44 19.92V12.92H49.9V10.02H52.44V7.81C52.44 5.3 53.93 3.92 56.22 3.92C57.31 3.92 58.45 4.11 58.45 4.11V6.58H57.19C55.95 6.58 55.56 7.35 55.56 8.14V10.02H58.34L57.89 12.92H55.56V19.92C57.9164 19.5478 60.0622 18.3455 61.6099 16.5301C63.1576 14.7146 64.0054 12.4056 64 10.02C64 4.49 59.5 0 54 0Z" fill="#999999"/>
<path d="M92.8 0H101.2C104.4 0 107 2.6 107 5.8V14.2C107 15.7383 106.389 17.2135 105.301 18.3012C104.214 19.3889 102.738 20 101.2 20H92.8C89.6 20 87 17.4 87 14.2V5.8C87 4.26174 87.6111 2.78649 88.6988 1.69878C89.7865 0.61107 91.2617 0 92.8 0ZM92.6 2C91.6452 2 90.7295 2.37928 90.0544 3.05442C89.3793 3.72955 89 4.64522 89 5.6V14.4C89 16.39 90.61 18 92.6 18H101.4C102.355 18 103.27 17.6207 103.946 16.9456C104.621 16.2705 105 15.3548 105 14.4V5.6C105 3.61 103.39 2 101.4 2H92.6ZM102.25 3.5C102.582 3.5 102.899 3.6317 103.134 3.86612C103.368 4.10054 103.5 4.41848 103.5 4.75C103.5 5.08152 103.368 5.39946 103.134 5.63388C102.899 5.8683 102.582 6 102.25 6C101.918 6 101.601 5.8683 101.366 5.63388C101.132 5.39946 101 5.08152 101 4.75C101 4.41848 101.132 4.10054 101.366 3.86612C101.601 3.6317 101.918 3.5 102.25 3.5ZM97 5C98.3261 5 99.5979 5.52678 100.536 6.46447C101.473 7.40215 102 8.67392 102 10C102 11.3261 101.473 12.5979 100.536 13.5355C99.5979 14.4732 98.3261 15 97 15C95.6739 15 94.4021 14.4732 93.4645 13.5355C92.5268 12.5979 92 11.3261 92 10C92 8.67392 92.5268 7.40215 93.4645 6.46447C94.4021 5.52678 95.6739 5 97 5ZM97 7C96.2044 7 95.4413 7.31607 94.8787 7.87868C94.3161 8.44129 94 9.20435 94 10C94 10.7956 94.3161 11.5587 94.8787 12.1213C95.4413 12.6839 96.2044 13 97 13C97.7956 13 98.5587 12.6839 99.1213 12.1213C99.6839 11.5587 100 10.7956 100 10C100 9.20435 99.6839 8.44129 99.1213 7.87868C98.5587 7.31607 97.7956 7 97 7Z" fill="#999999"/>
</svg>
