<?xml version="1.0" encoding="UTF-8" standalone="no" ?>
<!DOCTYPE svg PUBLIC "-//W3C//DTD SVG 1.1//EN" "http://www.w3.org/Graphics/SVG/1.1/DTD/svg11.dtd">
<svg xmlns="http://www.w3.org/2000/svg" xmlns:xlink="http://www.w3.org/1999/xlink" version="1.1" width="576" height="512" viewBox="0 0 576 512" xml:space="preserve">
<desc>Created with Fabric.js 3.6.3</desc>
<defs>
</defs>
<g transform="matrix(1 0 0 1 288.5 256.5)"  >
<path style="stroke: none; stroke-width: 1; stroke-dasharray: none; stroke-linecap: butt; stroke-dashoffset: 0; stroke-linejoin: miter; stroke-miterlimit: 4; fill: rgb(255,255,255); fill-rule: nonzero; opacity: 1;"  transform=" translate(-288, -256)" d="M 528.12 301.319 l 47.273 -208 C 578.806 78.301 567.391 64 551.99 64 H 159.208 l -9.166 -44.81 C 147.758 8.021 137.93 0 126.529 0 H 24 C 10.745 0 0 10.745 0 24 v 16 c 0 13.255 10.745 24 24 24 h 69.883 l 70.248 343.435 C 147.325 417.1 136 435.222 136 456 c 0 30.928 25.072 56 56 56 s 56 -25.072 56 -56 c 0 -15.674 -6.447 -29.835 -16.824 -40 h 209.647 C 430.447 426.165 424 440.326 424 456 c 0 30.928 25.072 56 56 56 s 56 -25.072 56 -56 c 0 -22.172 -12.888 -41.332 -31.579 -50.405 l 5.517 -24.276 c 3.413 -15.018 -8.002 -29.319 -23.403 -29.319 H 218.117 l -6.545 -32 h 293.145 c 11.206 0 20.92 -7.754 23.403 -18.681 z" stroke-linecap="round" />
</g>
</svg>